<?xml version="1.0" standalone="no"?>
<!DOCTYPE svg PUBLIC "-//W3C//DTD SVG 20010904//EN"
 "http://www.w3.org/TR/2001/REC-SVG-20010904/DTD/svg10.dtd">
<svg version="1.0" xmlns="http://www.w3.org/2000/svg"
 width="700.000000pt" height="700.000000pt" viewBox="0 0 700.000000 700.000000"
 preserveAspectRatio="xMidYMid meet">
<metadata>
Created by potrace 1.11, written by Peter Selinger 2001-2013
</metadata>
<g transform="translate(0.000000,700.000000) scale(0.100000,-0.100000)"
fill="#000000" stroke="none">
<path d="M2305 3500 l0 -2050 1195 0 1196 0 -1 113 0 112 -1048 0 -1047 0 0
50 c-1 57 -1 1608 0 1673 l0 42 895 0 895 0 0 115 0 115 -895 0 c-846 0 -895
1 -895 18 -4 138 0 1624 3 1629 3 4 420 8 926 7 l921 -1 0 114 0 113 -1073 0
-1072 0 0 -2050z"/>
</g>
</svg>
